<svg xmlns="http://www.w3.org/2000/svg" xmlns:xlink="http://www.w3.org/1999/xlink" width="1.98in" height="0.53in" viewBox="0 0 142.27 38.4"><defs><clipPath id="clip-path" transform="translate(-0.47 0)"><path d="M93.92,7.81l.78-.61c-4.31,3.41-4.46,7.77-4.69,10l-.78.61C89.46,15.58,89.61,11.22,93.92,7.81Z" style="fill:none"/></clipPath><clipPath id="clip-path-2" transform="translate(-0.47 0)"><path d="M91.47,4.63,92.25,4A15.69,15.69,0,0,1,102.39.54l-.78.61A15.76,15.76,0,0,0,91.47,4.63Z" style="fill:none"/></clipPath><clipPath id="clip-path-3" transform="translate(-0.47 0)"><path d="M133,32.5l-.78.61a7.43,7.43,0,0,1-4.64,1.6H125l-3.43,0H121l.78-.62h.6l3.43,0h2.56A7.45,7.45,0,0,0,133,32.5Z" style="fill:none"/></clipPath><clipPath id="clip-path-4" transform="translate(-0.47 0)"><path d="M135.1,35.52l-.77.62.48-.4a11.13,11.13,0,0,0-3.82-19,1.13,1.13,0,0,1-.58-.54,12.06,12.06,0,0,0-11-7.47,12.36,12.36,0,0,0-3,.34,1.18,1.18,0,0,1-.25,0,.6.6,0,0,1-.49-.33,16.24,16.24,0,0,0-12.32-7.51c-.58-.06-1.15-.09-1.71-.1l.78-.61c.56,0,1.13,0,1.71.09a16.27,16.27,0,0,1,12.32,7.51c.15.22.28.33.49.33l.25,0a12.36,12.36,0,0,1,3-.34,12.08,12.08,0,0,1,11,7.46,1.08,1.08,0,0,0,.58.55,11.12,11.12,0,0,1,3.82,19Z" style="fill:none"/></clipPath><clipPath id="clip-path-5" transform="translate(-0.47 0)"><path d="M93.92,7.27l.78-.61c-4.31,3.41-4.46,7.77-4.69,10l-.78.62C89.46,15,89.61,10.68,93.92,7.27Z" style="fill:none"/></clipPath><clipPath id="clip-path-6" transform="translate(-0.47 0)"><path d="M91.47,4.09l.78-.61A15.74,15.74,0,0,1,102.39,0l-.78.62A15.7,15.7,0,0,0,91.47,4.09Z" style="fill:none"/></clipPath><clipPath id="clip-path-7" transform="translate(-0.47 0)"><path d="M133,32l-.78.61a7.43,7.43,0,0,1-4.64,1.6H125l-3.43,0H121l.78-.62h.6l3.43,0h2.56A7.45,7.45,0,0,0,133,32Z" style="fill:none"/></clipPath><clipPath id="clip-path-8" transform="translate(-0.47 0)"><path d="M135.1,35l-.77.61.48-.4a11.13,11.13,0,0,0-3.82-19,1.13,1.13,0,0,1-.58-.54,12.06,12.06,0,0,0-11-7.47,13.45,13.45,0,0,0-3,.34.77.77,0,0,1-.25,0,.6.6,0,0,1-.49-.33A16.27,16.27,0,0,0,103.32.71a16.61,16.61,0,0,0-1.71-.09l.78-.62q.84,0,1.71.09A16.27,16.27,0,0,1,116.42,7.6c.15.23.28.33.49.33l.25,0a12.36,12.36,0,0,1,3-.34,12.08,12.08,0,0,1,11,7.46,1.08,1.08,0,0,0,.58.55,11.12,11.12,0,0,1,3.82,19C135.43,34.72,135.27,34.86,135.1,35Z" style="fill:none"/></clipPath></defs><g style="isolation:isolate"><g id="Layer_1" data-name="Layer 1"><g style="mix-blend-mode:multiply;opacity:0.7000000000000001"><path d="M.47,37.85l2.66-5L9.92,19.57l.79-1.67h3.4l2.53,7.16,4.68,12.79-1.39,0-1.56,0c-.27-.93-.7-2.29-1.31-4.06s-1.12-3.21-1.54-4.31h-8L5.41,33.85l-1.86,4-1.5,0Zm7.92-10.3H15l-2.71-7.73Z" transform="translate(-0.47 0)" style="fill:#010101"/><path d="M33.44,35.53c-.12.54-.24,1.22-.35,2a20.46,20.46,0,0,1-2.44.47,17.63,17.63,0,0,1-2,.13,11.42,11.42,0,0,1-3.28-.44,5.64,5.64,0,0,1-2.5-1.53,6.5,6.5,0,0,1-1.49-2.49,9.71,9.71,0,0,1-.45-3,9.87,9.87,0,0,1,.83-4,6.59,6.59,0,0,1,2.51-2.93,7.79,7.79,0,0,1,4.25-1.07A8.28,8.28,0,0,1,31,23.1a5.1,5.1,0,0,1,2,1.17,5.39,5.39,0,0,1,1.24,2,7.15,7.15,0,0,1,.44,2.53,5.69,5.69,0,0,1-.09,1H23.47q-.06.81-.06,1.23a6.23,6.23,0,0,0,.64,2.83,4.34,4.34,0,0,0,1.9,2,6.17,6.17,0,0,0,2.9.67A14.7,14.7,0,0,0,33.44,35.53Zm-9.86-7H32.3a8.19,8.19,0,0,0-.12-1.43,4.38,4.38,0,0,0-.38-1.06,3.16,3.16,0,0,0-.75-.95,3.48,3.48,0,0,0-1.14-.62,4.82,4.82,0,0,0-1.44-.21,5.19,5.19,0,0,0-1.59.24,4.69,4.69,0,0,0-1.33.64,4.25,4.25,0,0,0-1,1A4.42,4.42,0,0,0,24,27.2,10.61,10.61,0,0,0,23.58,28.57Z" transform="translate(-0.47 0)" style="fill:#010101"/><path d="M35.77,37.85q.52-8.43.52-13.46V23.05h2.47l-.12,2.42a8.45,8.45,0,0,1,1-1.36,3.78,3.78,0,0,1,.94-.76,4.69,4.69,0,0,1,1.19-.47,5.81,5.81,0,0,1,1.39-.17,5,5,0,0,1,1.21.15c0,.64,0,1.36.1,2.16a6,6,0,0,0-1.62-.25,4,4,0,0,0-1.55.29,3.43,3.43,0,0,0-1.23.86,4.46,4.46,0,0,0-.9,1.38A6,6,0,0,0,38.67,29q-.15,1-.24,3.72c0,1.32-.06,2.71-.06,4.18v1l-1.27,0Z" transform="translate(-0.47 0)" style="fill:#010101"/><path d="M45.16,37.85l.26-3.68.28-6.29.12-4.83h2.66q-.16,2.28-.3,4.77c-.09,1.66-.16,3.48-.21,5.44s-.08,3.5-.08,4.59l-1.32,0Zm.68-18c0-.92,0-1.61,0-2.08l1.42,0c.51,0,1,0,1.4,0,0,.31-.05,1-.09,2.08l-1.36,0Z" transform="translate(-0.47 0)" style="fill:#010101"/><path d="M62,35.53c-.11.54-.23,1.22-.35,2a20.34,20.34,0,0,1-2.43.47,17.8,17.8,0,0,1-2.06.13,11.47,11.47,0,0,1-3.28-.44,5.56,5.56,0,0,1-2.49-1.53,6.5,6.5,0,0,1-1.49-2.49,10.15,10.15,0,0,1,.38-7,6.53,6.53,0,0,1,2.51-2.93A7.75,7.75,0,0,1,57,22.71a8.29,8.29,0,0,1,2.55.39,5.06,5.06,0,0,1,2,1.17,5.41,5.41,0,0,1,1.25,2,7.15,7.15,0,0,1,.43,2.53,5.7,5.7,0,0,1-.08,1H52Q52,30.59,52,31a6.23,6.23,0,0,0,.65,2.83,4.34,4.34,0,0,0,1.9,2,6.13,6.13,0,0,0,2.89.67A14.6,14.6,0,0,0,62,35.53Zm-9.85-7h8.71a9.54,9.54,0,0,0-.11-1.43,4.38,4.38,0,0,0-.38-1.06,3,3,0,0,0-.76-.95,3.29,3.29,0,0,0-1.14-.62A4.73,4.73,0,0,0,57,24.3a5.17,5.17,0,0,0-1.58.24,4.44,4.44,0,0,0-1.33.64,3.89,3.89,0,0,0-1,1,4.42,4.42,0,0,0-.6,1.06A10.61,10.61,0,0,0,52.16,28.57Z" transform="translate(-0.47 0)" style="fill:#010101"/></g><path d="M.47,37.32l2.66-5L9.92,19l.79-1.67,1.69,0,1.71,0,2.53,7.16,4.68,12.8-1.39,0-1.56,0c-.27-.94-.7-2.29-1.31-4.07S15.94,30,15.52,28.94h-8L5.41,33.31l-1.86,4-1.5,0ZM8.39,27H15l-2.71-7.73Z" transform="translate(-0.47 0)" style="fill:#052e48"/><path d="M33.44,35c-.12.54-.24,1.22-.35,2a20.46,20.46,0,0,1-2.44.47,15.68,15.68,0,0,1-2,.13,11.42,11.42,0,0,1-3.28-.44,5.64,5.64,0,0,1-2.5-1.53,6.5,6.5,0,0,1-1.49-2.49,9.71,9.71,0,0,1-.45-3,9.87,9.87,0,0,1,.83-4,6.59,6.59,0,0,1,2.51-2.93,7.79,7.79,0,0,1,4.25-1.07,8.28,8.28,0,0,1,2.54.39,5.1,5.1,0,0,1,2,1.17,5.39,5.39,0,0,1,1.24,2,7.15,7.15,0,0,1,.44,2.53,5.89,5.89,0,0,1-.09,1H23.47c0,.53-.06.94-.06,1.22a6.23,6.23,0,0,0,.64,2.83,4.3,4.3,0,0,0,1.9,2,6.05,6.05,0,0,0,2.9.67A14.7,14.7,0,0,0,33.44,35Zm-9.86-7H32.3a8.19,8.19,0,0,0-.12-1.43,4.53,4.53,0,0,0-.38-1.06,3.16,3.16,0,0,0-.75-.95A3.28,3.28,0,0,0,29.91,24a4.52,4.52,0,0,0-1.44-.22,5.19,5.19,0,0,0-1.59.24,4.69,4.69,0,0,0-1.33.64,4.25,4.25,0,0,0-1,1,4.42,4.42,0,0,0-.6,1.06A10.61,10.61,0,0,0,23.58,28Z" transform="translate(-0.47 0)" style="fill:#052e48"/><path d="M35.77,37.32q.52-8.44.52-13.47V22.51h2.47l-.12,2.42a8.45,8.45,0,0,1,1-1.36,3.78,3.78,0,0,1,.94-.76,4.69,4.69,0,0,1,1.19-.47,5.81,5.81,0,0,1,1.39-.17,5,5,0,0,1,1.21.15c0,.64,0,1.36.1,2.16a6,6,0,0,0-1.62-.25,4,4,0,0,0-1.55.29,3.43,3.43,0,0,0-1.23.86,4.58,4.58,0,0,0-.9,1.38,6.15,6.15,0,0,0-.45,1.67c-.1.68-.18,1.92-.24,3.73,0,1.31-.06,2.7-.06,4.18v1l-1.27,0Z" transform="translate(-0.47 0)" style="fill:#052e48"/><path d="M45.16,37.32l.26-3.69.28-6.28.12-4.84h2.66q-.16,2.28-.3,4.77c-.09,1.66-.16,3.48-.21,5.45s-.08,3.49-.08,4.59l-1.32,0Zm.68-18c0-.92,0-1.61,0-2.08l1.42,0c.51,0,1,0,1.4,0,0,.31-.05,1-.09,2.08H45.84Z" transform="translate(-0.47 0)" style="fill:#052e48"/><path d="M62,35c-.11.54-.23,1.22-.35,2a20.34,20.34,0,0,1-2.43.47,15.83,15.83,0,0,1-2.06.13,11.47,11.47,0,0,1-3.28-.44,5.56,5.56,0,0,1-2.49-1.53,6.5,6.5,0,0,1-1.49-2.49,10.15,10.15,0,0,1,.38-7,6.53,6.53,0,0,1,2.51-2.93A7.75,7.75,0,0,1,57,22.17a8.29,8.29,0,0,1,2.55.39,5.06,5.06,0,0,1,2,1.17,5.41,5.41,0,0,1,1.25,2,7.15,7.15,0,0,1,.43,2.53,5.88,5.88,0,0,1-.08,1H52c0,.53-.06.94-.06,1.22a6.23,6.23,0,0,0,.65,2.83,4.3,4.3,0,0,0,1.9,2,6,6,0,0,0,2.89.67A14.6,14.6,0,0,0,62,35Zm-9.85-7h8.71a9.54,9.54,0,0,0-.11-1.43,4.53,4.53,0,0,0-.38-1.06,3,3,0,0,0-.76-.95A3.11,3.11,0,0,0,58.48,24,4.44,4.44,0,0,0,57,23.76a5.17,5.17,0,0,0-1.58.24,4.44,4.44,0,0,0-1.33.64,3.89,3.89,0,0,0-1,1,4.42,4.42,0,0,0-.6,1.06A10.61,10.61,0,0,0,52.16,28Z" transform="translate(-0.47 0)" style="fill:#052e48"/><g style="mix-blend-mode:multiply;opacity:0.7000000000000001"><path d="M63.62,37.85c.52-4.68.92-11.43,1-20.26H69.3c-.16,1.32-.27,2.7-.37,4.2l-.18,3.75c1.78,0,3.54,0,5.29,0s3.46,0,5.17,0l.13-2.78c0-1.31.12-2.57.12-3.8,0-.46,0-.92,0-1.38h4.69c-.18,1.47-.34,2.88-.39,4.22l-.58,11.54c0,.58-.06,1.31-.06,2.26,0,.63,0,1.41,0,2.23H78.43c.19-2,.28-3.43.34-4.25L79,29.23c-1.78-.06-3.51-.1-5.27-.1s-3.45,0-5.16.1l-.13,2c-.08,1.78-.16,4-.18,6.58H63.62v0Z" transform="translate(-0.47 0)" style="fill:#010101"/><path d="M100.13,37.85h-4V36a6.19,6.19,0,0,1-5.3,2.33c-4.28,0-6-1.59-6-5.24,0-1.75.24-4.9.24-9.39V22.28H89.4c-.4,4.69-.47,7.68-.47,9,0,2.62.68,3.79,2.88,3.79,3.8,0,4.72-3.27,4.72-10.43,0-.73,0-1.5,0-2.33h4.35C100.36,27.21,100.13,32.4,100.13,37.85Z" transform="translate(-0.47 0)" style="fill:#010101"/><path d="M105.61,37.85h-4.09q1-12.26,1.1-20.26h4.19c-.08,1.1-.15,2.08-.18,2.91l-.09,2.26a10.47,10.47,0,0,1,4.23-.83c4.5,0,7.07,2.69,7.07,7.55,0,5.51-2.91,8.78-7.19,8.78a5.53,5.53,0,0,1-4.87-2.35Zm.43-7.76c0,2.81,1.22,4.31,3.48,4.31,2.52,0,4-1.78,4-4.93,0-2.7-1.28-4.1-3.67-4.1a9.58,9.58,0,0,0-3.56.77A34,34,0,0,0,106,30.09Z" transform="translate(-0.47 0)" style="fill:#010101"/></g><g id="Layer_1-2" data-name="Layer 1"><path d="M63.62,37.32c.52-4.69.92-11.44,1-20.27H69.3c-.16,1.32-.27,2.7-.37,4.2L68.75,25c1.78,0,3.54,0,5.29,0s3.46,0,5.17,0l.13-2.78c0-1.31.12-2.57.12-3.8,0-.46,0-.91,0-1.38h4.69c-.18,1.47-.34,2.88-.39,4.22L83.15,32.8c0,.58-.06,1.31-.06,2.26,0,.63,0,1.41,0,2.23H78.43c.19-2,.28-3.43.34-4.25L79,28.69c-1.78-.06-3.51-.1-5.27-.1s-3.45,0-5.16.1l-.13,2c-.08,1.78-.16,3.95-.18,6.58H63.62v0Z" transform="translate(-0.47 0)" style="fill:#24beef"/><path d="M100.13,37.32h-4v-1.9a6.19,6.19,0,0,1-5.3,2.33c-4.28,0-6-1.59-6-5.24,0-1.75.24-4.89.24-9.38V21.74H89.4c-.4,4.69-.47,7.68-.47,9,0,2.62.68,3.8,2.88,3.8,3.8,0,4.72-3.28,4.72-10.44,0-.73,0-1.5,0-2.33h4.35C100.36,26.67,100.13,31.87,100.13,37.32Z" transform="translate(-0.47 0)" style="fill:#24beef"/><path d="M105.61,37.32h-4.09q1-12.27,1.1-20.27h4.19c-.08,1.11-.15,2.08-.18,2.91l-.09,2.26a10.64,10.64,0,0,1,4.23-.83c4.5,0,7.07,2.7,7.07,7.55,0,5.51-2.91,8.78-7.19,8.78a5.53,5.53,0,0,1-4.87-2.35Zm.43-7.77c0,2.81,1.22,4.31,3.48,4.31,2.52,0,4-1.78,4-4.93,0-2.7-1.28-4.1-3.67-4.1a9.58,9.58,0,0,0-3.56.77A34,34,0,0,0,106,29.55Z" transform="translate(-0.47 0)" style="fill:#24beef"/></g><g style="mix-blend-mode:multiply;opacity:0.75"><g style="clip-path:url(#clip-path)"><path d="M93.92,7.81l.78-.61a11.62,11.62,0,0,0-3,3.37l-.78.62a12,12,0,0,1,3-3.38" transform="translate(-0.47 0)" style="fill:#010101"/><path d="M91,11.19l.78-.62A10.5,10.5,0,0,0,91,12.21l-.78.61A11.92,11.92,0,0,1,91,11.19" transform="translate(-0.47 0)" style="fill:#010101"/><path d="M90.2,12.82l.78-.61a12.09,12.09,0,0,0-.49,1.6l-.78.61a12.56,12.56,0,0,1,.49-1.6" transform="translate(-0.47 0)" style="fill:#010101"/><path d="M89.71,14.42l.78-.61A16.59,16.59,0,0,0,90.13,16l-.78.61a18.8,18.8,0,0,1,.36-2.17" transform="translate(-0.47 0)" style="fill:#010101"/><path d="M89.35,16.59l.78-.61c0,.45-.09.86-.12,1.21l-.78.61c0-.35.07-.76.12-1.21" transform="translate(-0.47 0)" style="fill:#010101"/></g><g style="clip-path:url(#clip-path-2)"><path d="M91.47,4.63,92.25,4a15.94,15.94,0,0,1,4.53-2.55L96,2.09a16.15,16.15,0,0,0-4.53,2.54" transform="translate(-0.47 0)" style="fill:#010101"/><path d="M96,2.09l.78-.62A15.56,15.56,0,0,1,99.12.83l-.78.61A15.59,15.59,0,0,0,96,2.09" transform="translate(-0.47 0)" style="fill:#010101"/><path d="M98.34,1.44l.78-.61a15.91,15.91,0,0,1,2.09-.26l-.77.61a17.72,17.72,0,0,0-2.1.26" transform="translate(-0.47 0)" style="fill:#010101"/><path d="M100.44,1.18l.77-.61c.39,0,.78,0,1.18,0l-.78.61q-.6,0-1.17,0" transform="translate(-0.47 0)" style="fill:#010101"/></g><g style="clip-path:url(#clip-path-3)"><path d="M121,34.66l.78-.62h.6l3.43,0h3l-.78.61-.46,0H125l-3.43,0H121" transform="translate(-0.47 0)" style="fill:#010101"/><path d="M128,34.69l.78-.61a7.87,7.87,0,0,0,1-.13l-.77.62a8.27,8.27,0,0,1-1,.12" transform="translate(-0.47 0)" style="fill:#010101"/><path d="M129,34.57l.77-.62a7.09,7.09,0,0,0,1.14-.31l-.78.61a7,7,0,0,1-1.13.32" transform="translate(-0.47 0)" style="fill:#010101"/><path d="M130.14,34.25l.78-.61A7.34,7.34,0,0,0,133,32.5l-.78.61a7.09,7.09,0,0,1-2.05,1.14" transform="translate(-0.47 0)" style="fill:#010101"/></g><path d="M101.61,1.15c.56,0,1.13,0,1.71.1a16.24,16.24,0,0,1,12.32,7.51.6.6,0,0,0,.49.33,1.18,1.18,0,0,0,.25,0,12.36,12.36,0,0,1,3-.34,12.06,12.06,0,0,1,11,7.47,1.13,1.13,0,0,0,.58.54,11.13,11.13,0,0,1,3.82,19,10.07,10.07,0,0,1-6.57,2.63c-1.59,0-2.44,0-3.15,0-1,0-1.81,0-4.16-.06l0-3.68h.6l3.43,0h2.57a7.4,7.4,0,0,0,.54-14.79c-.4,0-.55-.12-.61-.55a8.36,8.36,0,0,0-8.18-7,7.9,7.9,0,0,0-3.27.68c-.65.29-1.25.67-1.88,1a13.13,13.13,0,0,0-12.57-9.23A11.85,11.85,0,0,0,99,5.11c-9.28,3.34-9.44,9.81-9.74,12.69l-3.9-.32C85.6,13.33,86.92,9,89.87,6.06A16,16,0,0,1,101.61,1.15Z" transform="translate(-0.47 0)" style="fill:#010101"/><g style="clip-path:url(#clip-path-4)"><path d="M101.61,1.15l.78-.61,1,0-.78.62-1,0" transform="translate(-0.47 0)" style="fill:#010101"/><path d="M102.58,1.19l.78-.62.74.06c.5.05,1,.12,1.48.21l-.78.62c-.48-.09-1-.16-1.48-.21-.25,0-.49-.05-.74-.06" transform="translate(-0.47 0)" style="fill:#010101"/><path d="M104.8,1.46l.78-.62a16.6,16.6,0,0,1,2,.51l-.78.61a16.58,16.58,0,0,0-2-.5" transform="translate(-0.47 0)" style="fill:#010101"/><path d="M106.85,2l.78-.61a15.31,15.31,0,0,1,2.07.81l-.78.61A17.11,17.11,0,0,0,106.85,2" transform="translate(-0.47 0)" style="fill:#010101"/><path d="M108.92,2.77l.78-.61a16.25,16.25,0,0,1,2.56,1.54l-.78.62a16.31,16.31,0,0,0-2.56-1.55" transform="translate(-0.47 0)" style="fill:#010101"/><path d="M111.48,4.32l.78-.62a18.08,18.08,0,0,1,4.16,4.44,1,1,0,0,0,.21.24l-.78.61a1,1,0,0,1-.21-.23,17.9,17.9,0,0,0-4.16-4.44" transform="translate(-0.47 0)" style="fill:#010101"/><path d="M115.85,9l.78-.61.08,0-.78.61-.08,0" transform="translate(-0.47 0)" style="fill:#010101"/><path d="M115.93,9l.78-.61.05,0-.77.61-.06,0" transform="translate(-0.47 0)" style="fill:#010101"/><path d="M116,9.06l.77-.61h.06l-.78.62-.05,0" transform="translate(-0.47 0)" style="fill:#010101"/><path d="M116,9.08l.78-.62h.06l-.78.61H116" transform="translate(-0.47 0)" style="fill:#010101"/><path d="M116.1,9.08l.78-.61H117l-.78.61h-.08" transform="translate(-0.47 0)" style="fill:#010101"/><path d="M116.18,9.08l.78-.61.13,0-.77.62h-.14" transform="translate(-0.47 0)" style="fill:#010101"/><path d="M116.32,9.07l.77-.62h.07l.54-.12-.78.62-.54.11-.06,0" transform="translate(-0.47 0)" style="fill:#010101"/><path d="M116.92,8.94l.78-.62a12.8,12.8,0,0,1,1.62-.2l-.78.61a13.07,13.07,0,0,0-1.62.21" transform="translate(-0.47 0)" style="fill:#010101"/><path d="M118.54,8.73l.78-.61c.28,0,.56,0,.83,0l.64,0-.77.62c-.22,0-.43,0-.65,0l-.83,0" transform="translate(-0.47 0)" style="fill:#010101"/><path d="M120,8.74l.77-.62a13.61,13.61,0,0,1,1.43.17l-.78.62A9.66,9.66,0,0,0,120,8.74" transform="translate(-0.47 0)" style="fill:#010101"/><path d="M121.44,8.91l.78-.62a11.66,11.66,0,0,1,1.44.36l-.78.61a13.74,13.74,0,0,0-1.44-.35" transform="translate(-0.47 0)" style="fill:#010101"/><path d="M122.88,9.26l.78-.61a11.13,11.13,0,0,1,1.57.62l-.78.61a12.49,12.49,0,0,0-1.57-.62" transform="translate(-0.47 0)" style="fill:#010101"/><path d="M124.45,9.88l.78-.61a12,12,0,0,1,2,1.19l-.78.61a12,12,0,0,0-2-1.19" transform="translate(-0.47 0)" style="fill:#010101"/><path d="M126.42,11.07l.78-.61a12.15,12.15,0,0,1,3.65,4.38l-.77.61a12.45,12.45,0,0,0-3.66-4.38" transform="translate(-0.47 0)" style="fill:#010101"/><path d="M130.08,15.45l.77-.61c.12.23.23.47.34.72l0,0-.78.61,0,0c-.1-.25-.22-.49-.33-.73" transform="translate(-0.47 0)" style="fill:#010101"/><path d="M130.43,16.22l.78-.61a1.15,1.15,0,0,0,.33.37l-.78.62a1.08,1.08,0,0,1-.33-.38" transform="translate(-0.47 0)" style="fill:#010101"/><path d="M130.76,16.6l.78-.62.15.1-.77.61a.51.51,0,0,1-.16-.09" transform="translate(-0.47 0)" style="fill:#010101"/><path d="M130.92,16.69l.77-.61.08,0a11.1,11.1,0,0,1,1.28.53l-.77.61c-.42-.2-.85-.37-1.29-.53a.09.09,0,0,1-.07,0" transform="translate(-0.47 0)" style="fill:#010101"/><path d="M132.28,17.25l.77-.61A11.22,11.22,0,0,1,135,17.8l-.78.61a11.53,11.53,0,0,0-1.92-1.16" transform="translate(-0.47 0)" style="fill:#010101"/><path d="M134.2,18.41l.78-.61a11.08,11.08,0,0,1,3.28,3.89l-.77.62a11.14,11.14,0,0,0-3.29-3.9" transform="translate(-0.47 0)" style="fill:#010101"/><path d="M137.49,22.31l.77-.62a10.67,10.67,0,0,1,.79,2l-.78.62a11.34,11.34,0,0,0-.78-2" transform="translate(-0.47 0)" style="fill:#010101"/><path d="M138.27,24.34l.78-.62a11.7,11.7,0,0,1,.32,1.54l-.78.62a10,10,0,0,0-.32-1.54" transform="translate(-0.47 0)" style="fill:#010101"/><path d="M138.59,25.88l.78-.62a10.7,10.7,0,0,1,.09,1.39l-.77.61a12.81,12.81,0,0,0-.1-1.38" transform="translate(-0.47 0)" style="fill:#010101"/><path d="M138.69,27.26l.77-.61a9.44,9.44,0,0,1-.07,1.3l-.77.62a11.5,11.5,0,0,0,.07-1.31" transform="translate(-0.47 0)" style="fill:#010101"/><path d="M138.62,28.57l.77-.62a9.68,9.68,0,0,1-.22,1.31l-.78.61a11.41,11.41,0,0,0,.23-1.3" transform="translate(-0.47 0)" style="fill:#010101"/><path d="M138.39,29.87l.78-.61a9.86,9.86,0,0,1-.43,1.37l-.77.61a11.36,11.36,0,0,0,.42-1.37" transform="translate(-0.47 0)" style="fill:#010101"/><path d="M138,31.24l.77-.61a10.89,10.89,0,0,1-.73,1.55l-.78.61a10.46,10.46,0,0,0,.74-1.55" transform="translate(-0.47 0)" style="fill:#010101"/><path d="M137.23,32.79l.78-.61a11.67,11.67,0,0,1-2.42,2.94l-.49.4-.77.62.48-.4a11.71,11.71,0,0,0,2.42-3" transform="translate(-0.47 0)" style="fill:#010101"/></g></g><g style="isolation:isolate"><g style="isolation:isolate"><g style="clip-path:url(#clip-path-5)"><g style="isolation:isolate"><path d="M93.92,7.27l.78-.61a11.52,11.52,0,0,0-3,3.38l-.78.61a12.09,12.09,0,0,1,3-3.38" transform="translate(-0.47 0)" style="fill:#fff"/><path d="M91,10.65l.78-.61A10,10,0,0,0,91,11.67l-.78.62A11.49,11.49,0,0,1,91,10.65" transform="translate(-0.47 0)" style="fill:#fff"/><path d="M90.2,12.29l.78-.62a12.09,12.09,0,0,0-.49,1.6l-.78.61a12,12,0,0,1,.49-1.59" transform="translate(-0.47 0)" style="fill:#fff"/><path d="M89.71,13.88l.78-.61a16.59,16.59,0,0,0-.36,2.17l-.78.61a19.16,19.16,0,0,1,.36-2.17" transform="translate(-0.47 0)" style="fill:#fff"/><path d="M89.35,16.05l.78-.61c0,.45-.09.86-.12,1.21l-.78.62c0-.36.07-.77.12-1.22" transform="translate(-0.47 0)" style="fill:#fff"/></g></g></g><g style="isolation:isolate"><g style="clip-path:url(#clip-path-6)"><g style="isolation:isolate"><path d="M91.47,4.09l.78-.61A15.94,15.94,0,0,1,96.78.93L96,1.55a16.15,16.15,0,0,0-4.53,2.54" transform="translate(-0.47 0)" style="fill:#fff"/><path d="M96,1.55l.78-.62A15.56,15.56,0,0,1,99.12.29l-.78.62A14.46,14.46,0,0,0,96,1.55" transform="translate(-0.47 0)" style="fill:#fff"/><path d="M98.34.91l.78-.62A15.91,15.91,0,0,1,101.21,0l-.77.62a14.35,14.35,0,0,0-2.1.26" transform="translate(-0.47 0)" style="fill:#fff"/><path d="M100.44.65l.77-.62c.39,0,.78,0,1.18,0l-.78.62a11.28,11.28,0,0,0-1.17,0" transform="translate(-0.47 0)" style="fill:#fff"/></g></g></g><g style="isolation:isolate"><g style="clip-path:url(#clip-path-7)"><g style="isolation:isolate"><path d="M121,34.12l.78-.62h.6l3.43,0h3l-.78.61-.46,0H125l-3.43,0H121" transform="translate(-0.47 0)" style="fill:#fff"/><path d="M128,34.15l.78-.61a6.38,6.38,0,0,0,1-.13L129,34a8.27,8.27,0,0,1-1,.12" transform="translate(-0.47 0)" style="fill:#fff"/><path d="M129,34l.77-.62a7.09,7.09,0,0,0,1.14-.31l-.78.62A8.16,8.16,0,0,1,129,34" transform="translate(-0.47 0)" style="fill:#fff"/><path d="M130.14,33.72l.78-.62A7.34,7.34,0,0,0,133,32l-.78.61a7.37,7.37,0,0,1-2.05,1.15" transform="translate(-0.47 0)" style="fill:#fff"/></g></g></g><path d="M101.61.62a16.61,16.61,0,0,1,1.71.09,16.27,16.27,0,0,1,12.32,7.51.6.6,0,0,0,.49.33.77.77,0,0,0,.25,0,13.45,13.45,0,0,1,3-.34,12.06,12.06,0,0,1,11,7.47,1.13,1.13,0,0,0,.58.54,11.13,11.13,0,0,1,3.82,19,10,10,0,0,1-6.57,2.63c-1.59,0-2.44,0-3.15,0-1,0-1.81,0-4.16-.06l0-3.68h.6l3.43,0h2.57a7.4,7.4,0,0,0,.54-14.79c-.4,0-.55-.12-.61-.55a8.37,8.37,0,0,0-8.18-7,7.9,7.9,0,0,0-3.27.68c-.65.29-1.25.67-1.88,1a13.13,13.13,0,0,0-12.57-9.23A11.85,11.85,0,0,0,99,4.57c-9.28,3.34-9.44,9.82-9.74,12.7l-3.9-.33c.27-4.15,1.59-8.49,4.54-11.42A16,16,0,0,1,101.61.62Z" transform="translate(-0.47 0)" style="fill:#24beef"/><g style="isolation:isolate"><g style="clip-path:url(#clip-path-8)"><g style="isolation:isolate"><path d="M101.61.62l.78-.62,1,0-.78.62-1,0" transform="translate(-0.47 0)" style="fill:#fff"/><path d="M102.58.65l.78-.62.74.06c.5.05,1,.12,1.48.21l-.78.62c-.48-.09-1-.16-1.48-.21l-.74-.06" transform="translate(-0.47 0)" style="fill:#fff"/><path d="M104.8.92l.78-.62a16.6,16.6,0,0,1,2,.51l-.78.61a16.58,16.58,0,0,0-2-.5" transform="translate(-0.47 0)" style="fill:#fff"/><path d="M106.85,1.42l.78-.61a15.31,15.31,0,0,1,2.07.81l-.78.62a15.64,15.64,0,0,0-2.07-.82" transform="translate(-0.47 0)" style="fill:#fff"/><path d="M108.92,2.24l.78-.62a16.25,16.25,0,0,1,2.56,1.54l-.78.62a15.53,15.53,0,0,0-2.56-1.54" transform="translate(-0.47 0)" style="fill:#fff"/><path d="M111.48,3.78l.78-.62a18.08,18.08,0,0,1,4.16,4.44.86.86,0,0,0,.21.24l-.78.62a1.29,1.29,0,0,1-.21-.24,17.9,17.9,0,0,0-4.16-4.44" transform="translate(-0.47 0)" style="fill:#fff"/><path d="M115.85,8.46l.78-.62.08,0-.78.61-.08,0" transform="translate(-0.47 0)" style="fill:#fff"/><path d="M115.93,8.5l.78-.61.05,0-.77.61-.06,0" transform="translate(-0.47 0)" style="fill:#fff"/><path d="M116,8.52l.77-.61h.06l-.78.62-.05,0" transform="translate(-0.47 0)" style="fill:#fff"/><path d="M116,8.54l.78-.62h.06l-.78.62H116" transform="translate(-0.47 0)" style="fill:#fff"/><path d="M116.1,8.55l.78-.62H117l-.78.62h-.08" transform="translate(-0.47 0)" style="fill:#fff"/><path d="M116.18,8.55l.78-.62.13,0-.77.62-.14,0" transform="translate(-0.47 0)" style="fill:#fff"/><path d="M116.32,8.53l.77-.62h.07l.54-.12-.78.62-.54.11-.06,0" transform="translate(-0.47 0)" style="fill:#fff"/><path d="M116.92,8.4l.78-.62a12.8,12.8,0,0,1,1.62-.2l-.78.61a13.07,13.07,0,0,0-1.62.21" transform="translate(-0.47 0)" style="fill:#fff"/><path d="M118.54,8.19l.78-.61c.28,0,.56,0,.83,0l.64,0L120,8.2l-.65,0-.83,0" transform="translate(-0.47 0)" style="fill:#fff"/><path d="M120,8.2l.77-.62a13.61,13.61,0,0,1,1.43.17l-.78.62A11.23,11.23,0,0,0,120,8.2" transform="translate(-0.47 0)" style="fill:#fff"/><path d="M121.44,8.37l.78-.62a11.66,11.66,0,0,1,1.44.36l-.78.62a11.66,11.66,0,0,0-1.44-.36" transform="translate(-0.47 0)" style="fill:#fff"/><path d="M122.88,8.73l.78-.62a12.49,12.49,0,0,1,1.57.62l-.78.61a11.08,11.08,0,0,0-1.57-.61" transform="translate(-0.47 0)" style="fill:#fff"/><path d="M124.45,9.34l.78-.61a12,12,0,0,1,2,1.19l-.78.61a12,12,0,0,0-2-1.19" transform="translate(-0.47 0)" style="fill:#fff"/><path d="M126.42,10.53l.78-.61a12.24,12.24,0,0,1,3.65,4.38l-.77.61a12.45,12.45,0,0,0-3.66-4.38" transform="translate(-0.47 0)" style="fill:#fff"/><path d="M130.08,14.91l.77-.61c.12.23.23.48.34.72l0,.05-.78.61,0,0c-.1-.25-.22-.49-.33-.73" transform="translate(-0.47 0)" style="fill:#fff"/><path d="M130.43,15.68l.78-.61a1.15,1.15,0,0,0,.33.37l-.78.62a1.08,1.08,0,0,1-.33-.38" transform="translate(-0.47 0)" style="fill:#fff"/><path d="M130.76,16.06l.78-.62.15.1-.77.62-.16-.1" transform="translate(-0.47 0)" style="fill:#fff"/><path d="M130.92,16.16l.77-.62.08,0a11.1,11.1,0,0,1,1.28.53l-.77.61c-.42-.19-.85-.37-1.29-.53l-.07,0" transform="translate(-0.47 0)" style="fill:#fff"/><path d="M132.28,16.71l.77-.61A11.22,11.22,0,0,1,135,17.26l-.78.61a13.05,13.05,0,0,0-1.92-1.16" transform="translate(-0.47 0)" style="fill:#fff"/><path d="M134.2,17.87l.78-.61a11.08,11.08,0,0,1,3.28,3.89l-.77.62a11.14,11.14,0,0,0-3.29-3.9" transform="translate(-0.47 0)" style="fill:#fff"/><path d="M137.49,21.77l.77-.62a10.67,10.67,0,0,1,.79,2l-.78.62a11.34,11.34,0,0,0-.78-2" transform="translate(-0.47 0)" style="fill:#fff"/><path d="M138.27,23.8l.78-.62a11.7,11.7,0,0,1,.32,1.54l-.78.62a10,10,0,0,0-.32-1.54" transform="translate(-0.47 0)" style="fill:#fff"/><path d="M138.59,25.34l.78-.62a10.7,10.7,0,0,1,.09,1.39l-.77.61a12.81,12.81,0,0,0-.1-1.38" transform="translate(-0.47 0)" style="fill:#fff"/><path d="M138.69,26.72l.77-.61a9.67,9.67,0,0,1-.07,1.31l-.77.61a11.5,11.5,0,0,0,.07-1.31" transform="translate(-0.47 0)" style="fill:#fff"/><path d="M138.62,28l.77-.61a9.81,9.81,0,0,1-.22,1.3l-.78.61a11.41,11.41,0,0,0,.23-1.3" transform="translate(-0.47 0)" style="fill:#fff"/><path d="M138.39,29.33l.78-.61a9.86,9.86,0,0,1-.43,1.37l-.77.61a10.84,10.84,0,0,0,.42-1.37" transform="translate(-0.47 0)" style="fill:#fff"/><path d="M138,30.7l.77-.61a10.4,10.4,0,0,1-.73,1.55l-.78.62A11.07,11.07,0,0,0,138,30.7" transform="translate(-0.47 0)" style="fill:#fff"/><path d="M137.23,32.26l.78-.62a11.49,11.49,0,0,1-2.42,2.94c-.16.14-.32.28-.49.41l-.77.61.48-.4a11.67,11.67,0,0,0,2.42-2.94" transform="translate(-0.47 0)" style="fill:#fff"/></g></g></g></g><path d="M142.74,35.91a2.47,2.47,0,1,1-2.46-2.4A2.41,2.41,0,0,1,142.74,35.91Zm-4.33,0a1.86,1.86,0,0,0,1.88,1.92,1.92,1.92,0,0,0,0-3.84A1.87,1.87,0,0,0,138.41,35.91Zm1.48,1.26h-.55v-2.4a4.27,4.27,0,0,1,.92-.08,1.55,1.55,0,0,1,.84.18.66.66,0,0,1,.23.53.6.6,0,0,1-.5.55v0a.71.71,0,0,1,.44.59,1.92,1.92,0,0,0,.18.6h-.6a1.82,1.82,0,0,1-.19-.59c0-.26-.19-.38-.5-.38h-.27Zm0-1.36h.26c.31,0,.56-.11.56-.35s-.16-.37-.51-.37a1.09,1.09,0,0,0-.31,0Z" transform="translate(-0.47 0)" style="fill:#052e48"/></g></g></svg>